<?xml version="1.0" encoding="UTF-8" standalone="no"?>
<svg
   xmlns:dc="http://purl.org/dc/elements/1.1/"
   xmlns:cc="http://creativecommons.org/ns#"
   xmlns:rdf="http://www.w3.org/1999/02/22-rdf-syntax-ns#"
   xmlns:svg="http://www.w3.org/2000/svg"
   xmlns="http://www.w3.org/2000/svg"
   id="svg3319"
   height="450.39001"
   width="450.39398"
   version="1.1">
  <defs
     id="defs3321" />
  <metadata
     id="metadata3324">
    <rdf:RDF>
      <cc:Work
         rdf:about="">
        <dc:format>image/svg+xml</dc:format>
        <dc:type
           rdf:resource="http://purl.org/dc/dcmitype/StillImage" />
        <dc:title></dc:title>
      </cc:Work>
    </rdf:RDF>
  </metadata>
  <g
     id="layer1"
     transform="translate(-49.374588,36.711212)">
    <g
       id="g3379"
       transform="matrix(0.49074074,0,0,0.49074074,152.8106,268.97316)">
      <circle
         style="fill:#d66661;stroke:#c93d39;stroke-width:3"
         id="circle3357"
         transform="matrix(6.5629574,0,0,6.5629708,-1339.431,-451.49183)"
         r="16.5"
         cy="60.249001"
         cx="212.459" />
      <circle
         style="fill:#6bab5b;stroke:#3b972e;stroke-width:3"
         id="circle3359"
         transform="matrix(6.5629574,0,0,6.5629708,-1339.431,-451.49183)"
         r="16.5"
         cy="23.874001"
         cx="233.834" />
      <circle
         style="fill:#aa7dc0;stroke:#945bb0;stroke-width:3"
         id="circle3361"
         transform="matrix(6.5629574,0,0,6.5629708,-1339.431,-451.49183)"
         r="16.5"
         cy="59.999001"
         cx="255.459" />
      <path
         style="fill:#252525"
         id="path3369"
         d="m -96.552376,-164.25192 c 0,92.898795 -0.04838,185.81082 0.09234,278.70971 0.009,6.74018 -0.721302,9.3063 -5.858374,9.24068 -34.47295,-0.40036 -68.9459,-0.30848 -103.42765,-0.0656 -3.8748,0.0262 -4.93037,-1.2404 -4.92157,-7.24552 0.11436,-171.641456 0.10996,-343.28932 0,-514.91754 0,-5.09286 -0.1944,-49.85238 -0.0607,-55.18212 19.01215,-0.1634 80.67132,-0.065 114.292652,0.1816 -0.044,6.6084 -0.05938,3.36972 -0.06816,8.98106 -0.07478,93.43045 -0.04838,186.85433 -0.04838,280.29786 z" />
      <g
         id="g3734"
         transform="matrix(9.2587482,0,0,13.143327,-1492.7197,-7271.9537)">
        <path
           style="fill:#252525;fill-opacity:1"
           id="anglr"
           d="m 237.58378,540.84248 -18.501,21.85021 -14.1738,4e-5 18.51433,-21.85021 -18.51433,-22.0818 14.1738,0 z" />
      </g>
    </g>
  </g>
</svg>
