<?xml version="1.0" encoding="UTF-8" standalone="no"?>
<!-- Created with Inkscape (http://www.inkscape.org/) -->

<svg
   xmlns:dc="http://purl.org/dc/elements/1.1/"
   xmlns:cc="http://creativecommons.org/ns#"
   xmlns:rdf="http://www.w3.org/1999/02/22-rdf-syntax-ns#"
   xmlns:svg="http://www.w3.org/2000/svg"
   xmlns="http://www.w3.org/2000/svg"
   version="1.1"
   width="749.41803"
   height="130.48555"
   id="svg2">
  <defs
     id="defs4" />
  <metadata
     id="metadata7">
    <rdf:RDF>
      <cc:Work
         rdf:about="">
        <dc:format>image/svg+xml</dc:format>
        <dc:type
           rdf:resource="http://purl.org/dc/dcmitype/StillImage" />
        <dc:title></dc:title>
      </cc:Work>
    </rdf:RDF>
  </metadata>
  <g
     transform="translate(34.875729,-187.82103)"
     id="layer1">
    <g
       transform="matrix(0.65979775,0,0,0.65234989,-2.187719,183.9947)"
       id="g3059">
      <circle
         cx="50.5"
         cy="58.665001"
         r="16.5"
         id="circle3035"
         style="fill:#6b85dd;stroke:#4266d5;stroke-width:3" />
      <circle
         cx="212.459"
         cy="60.249001"
         r="16.5"
         id="circle3037"
         style="fill:#d66661;stroke:#c93d39;stroke-width:3" />
      <circle
         cx="233.834"
         cy="23.874001"
         r="16.5"
         id="circle3039"
         style="fill:#6bab5b;stroke:#3b972e;stroke-width:3" />
      <circle
         cx="255.459"
         cy="59.999001"
         r="16.5"
         id="circle3041"
         style="fill:#aa7dc0;stroke:#945bb0;stroke-width:3" />
      <path
         d="m 37.216,138.427 c 0,-15.839 0.006,-31.679 -0.018,-47.517 -10e-4,-0.827 0.169,-1.234 1.043,-1.47 7.876,-2.127 15.739,-4.308 23.606,-6.47 1.33,-0.366 1.333,-0.36 1.333,1.019 0,25.758 0.015,51.517 -0.012,77.274 -0.006,5.514 0.245,11.032 -0.272,16.543 -0.628,6.69 -2.15,13.092 -6.438,18.506 -3.781,4.771 -8.898,7.25 -14.767,8.338 -6.599,1.222 -13.251,1.552 -19.934,0.938 -4.616,-0.423 -9.045,-1.486 -12.844,-4.363 -2.863,-2.168 -4.454,-4.935 -3.745,-8.603 0.736,-3.806 3.348,-5.978 6.861,-7.127 2.262,-0.74 4.628,-0.872 6.994,-0.53 1.823,0.264 3.42,1.023 4.779,2.288 1.38,1.284 2.641,2.674 3.778,4.177 0.872,1.15 1.793,2.256 2.991,3.086 2.055,1.426 4,0.965 5.213,-1.216 0.819,-1.473 0.997,-3.106 1.173,-4.731 0.255,-2.348 0.255,-4.707 0.256,-7.062 0.005,-14.362 0.003,-28.721 0.003,-43.08 z"
         id="path3043"
         style="fill:#252525" />
      <path
         d="m 125.536,162.479 c -2.908,2.385 -5.783,4.312 -8.88,5.904 -10.348,5.323 -20.514,4.521 -30.324,-1.253 -6.71,-3.95 -11.012,-9.849 -12.52,-17.606 -0.236,-1.213 -0.363,-2.438 -0.363,-3.688 0.01,-19.797 0.017,-39.593 -0.02,-59.39 -0.002,-1.102 0.285,-1.357 1.363,-1.351 7.798,0.049 15.597,0.044 23.396,0.003 0.95,-0.005 1.177,0.25 1.175,1.183 -0.027,19.356 -0.025,38.713 -0.018,58.07 0.002,6.34 3.599,10.934 9.672,12.42 2.13,0.521 4.19,0.396 6.173,-0.6 4.26,-2.139 7.457,-5.427 10.116,-9.307 0.333,-0.487 0.224,-1 0.224,-1.51 0.007,-19.635 0.016,-39.271 -0.02,-58.904 -0.002,-1.083 0.255,-1.369 1.353,-1.361 7.838,0.052 15.677,0.045 23.515,0.004 0.916,-0.005 1.103,0.244 1.102,1.124 -0.025,27.677 -0.026,55.353 0.002,83.024 0.001,0.938 -0.278,1.099 -1.139,1.095 -7.918,-0.028 -15.837,-0.028 -23.756,-0.001 -0.815,0.003 -1.1,-0.166 -1.073,-1.037 0.067,-2.181 0.022,-4.37 0.022,-6.819 z"
         id="path3045"
         style="fill:#252525" />
      <path
         d="m 187.423,107.08 c 0,20.637 -0.011,41.273 0.026,61.91 0.003,1.119 -0.309,1.361 -1.381,1.355 -7.799,-0.052 -15.598,-0.047 -23.396,-0.008 -0.898,0.008 -1.117,-0.222 -1.115,-1.115 0.021,-39.074 0.021,-78.147 0,-117.226 0,-0.811 0.189,-1.169 1.006,-1.392 7.871,-2.149 15.73,-4.327 23.584,-6.545 1.045,-0.295 1.308,-0.17 1.306,0.985 -0.041,20.683 -0.03,41.359 -0.03,62.036 z"
         id="path3047"
         style="fill:#252525" />
      <path
         d="m 223.46,126.477 c 0,14.155 -0.011,28.312 0.021,42.467 0.002,1.027 -0.164,1.418 -1.332,1.408 -7.838,-0.061 -15.676,-0.047 -23.516,-0.01 -0.881,0.004 -1.121,-0.189 -1.119,-1.104 0.026,-26.153 0.025,-52.307 0,-78.458 0,-0.776 0.203,-1.101 0.941,-1.302 7.984,-2.172 15.972,-4.35 23.938,-6.596 1.049,-0.296 1.08,0.031 1.078,0.886 -0.017,14.236 -0.011,28.471 -0.011,42.709 z"
         id="path3049"
         style="fill:#252525" />
      <path
         d="m 277.695,163.6 c -0.786,0.646 -1.404,1.125 -2,1.635 -4.375,3.746 -9.42,5.898 -15.16,6.42 -5.792,0.527 -11.479,0.244 -16.934,-2.047 -12.08,-5.071 -15.554,-17.188 -11.938,-27.448 1.799,-5.111 5.472,-8.868 9.831,-11.94 5.681,-4.003 12.009,-6.732 18.504,-9.074 5.576,-2.014 11.186,-3.939 16.955,-5.347 0.445,-0.104 0.773,-0.243 0.757,-0.854 -0.136,-4.389 0.261,-8.79 -0.479,-13.165 -1.225,-7.209 -6.617,-10.013 -12.895,-9.348 -0.516,0.055 -1.029,0.129 -1.536,0.241 -4.877,1.081 -7.312,4.413 -7.374,10.127 -0.02,1.729 -0.229,3.418 -0.693,5.084 -0.906,3.229 -2.969,5.354 -6.168,6.266 -3.422,0.979 -6.893,0.998 -10.23,-0.305 -6.529,-2.543 -8.877,-10.164 -5.12,-16.512 2.249,-3.799 5.606,-6.4 9.461,-8.405 6.238,-3.246 12.914,-4.974 19.896,-5.537 7.565,-0.61 15.096,-0.366 22.49,1.507 4.285,1.085 8.312,2.776 11.744,5.657 4.473,3.749 6.776,8.647 6.812,14.374 0.139,21.477 0.096,42.951 0.143,64.428 0.002,0.799 -0.248,0.983 -1.021,0.98 -8.035,-0.025 -16.074,-0.023 -24.113,-10e-4 -0.716,0.002 -0.973,-0.146 -0.941,-0.915 0.05,-1.859 0.009,-3.723 0.009,-5.821 z m 0,-37.207 c -4.793,2.104 -9.25,4.373 -13.287,7.408 -2.151,1.618 -4.033,3.483 -5.732,5.581 -4.229,5.226 -1.988,13.343 1.693,16.599 1.592,1.406 3.359,1.906 5.419,1.521 1.621,-0.307 3.149,-0.857 4.549,-1.734 1.521,-0.951 2.949,-2.072 4.539,-2.887 2.31,-1.18 2.97,-2.861 2.894,-5.445 -0.209,-6.952 -0.075,-13.909 -0.075,-21.043 z"
         id="path3051"
         style="fill:#252525" />
    </g>
    <g
       transform="matrix(0.97524786,0,0,0.97793146,111.78745,-69.075873)"
       id="layer1-7"
       style="fill:#252525;fill-opacity:1">
      <g
         transform="scale(1.0381445,0.96325708)"
         id="text3022"
         style="font-size:37.23672485px;font-style:normal;font-weight:normal;line-height:125%;letter-spacing:0px;word-spacing:0px;fill:#252525;fill-opacity:1;stroke:none;font-family:Sans">
        <path
           d="m 202.65283,408.47659 c -5.85592,-2e-5 -11.56776,-0.72 -17.13554,-2.15995 -5.51991,-1.39198 -10.65577,-3.16793 -15.40758,-5.32785 -4.70392,-2.15996 -8.87981,-4.53589 -12.52767,-7.12781 -3.59994,-2.54394 -6.40786,-4.99187 -8.42377,-7.3438 -4.03192,-1.19997 -7.72782,-2.92792 -11.0877,-5.18386 -3.35993,-2.25594 -6.26385,-4.94386 -8.71177,-8.06379 -2.39994,-3.1199 -4.27189,-6.5998 -5.61585,-10.43972 -1.29597,-3.83987 -1.94395,-7.94375 -1.94395,-12.31167 0,-5.51981 1.03197,-10.55967 3.09592,-15.11959 2.06394,-4.55982 4.89586,-8.44771 8.49577,-11.66369 3.64789,-3.21585 7.94377,-5.71178 12.88766,-7.4878 4.94383,-1.77588 10.29568,-2.66385 16.05557,-2.66393 5.75979,8e-5 11.11164,0.93605 16.05557,2.80793 4.9918,1.82402 9.31167,4.39195 12.95965,7.70379 3.64782,3.26397 6.50374,7.15187 8.56777,11.66369 2.06386,4.51192 3.09583,9.43179 3.09591,14.7596 -8e-5,4.55991 -0.69606,8.80779 -2.08794,12.74366 -1.34405,3.93591 -3.26399,7.46382 -5.75984,10.58372 -2.44801,3.11992 -5.42393,5.80785 -8.92776,8.06378 -3.50398,2.20794 -7.36787,3.8639 -11.59169,4.96787 0.91191,2.11194 2.27987,4.17588 4.10389,6.19183 1.82388,2.01594 3.95982,3.83989 6.40782,5.47185 2.49587,1.63195 5.23179,2.92791 8.20778,3.8879 2.97584,1.00796 6.07176,1.51194 9.28775,1.51196 l 0,4.53588 m -61.77434,-57.95845 c -2e-5,4.55991 0.45597,8.78379 1.36797,12.67166 0.91195,3.88792 2.25591,7.24782 4.03189,10.07973 1.77592,2.83194 3.98386,5.06387 6.62382,6.69582 2.68789,1.58397 5.7598,2.39994 9.21575,2.44794 3.45586,-0.38399 6.52778,-1.39196 9.21576,-3.02392 2.68787,-1.63195 4.9678,-3.81589 6.83981,-6.55183 1.87189,-2.73591 3.28785,-5.97582 4.24789,-9.71974 0.95991,-3.79187 1.43989,-7.99175 1.43996,-12.59966 -7e-5,-4.51184 -0.48005,-8.66372 -1.43996,-12.45566 -0.91204,-3.79185 -2.28,-7.05576 -4.10389,-9.79174 -1.82401,-2.73587 -4.07995,-4.84781 -6.76782,-6.33583 -2.68798,-1.53589 -5.7599,-2.30387 -9.21575,-2.30394 -3.50395,7e-5 -6.59987,0.76805 -9.28775,2.30394 -2.63997,1.48802 -4.8719,3.59996 -6.69582,6.33583 -1.77598,2.73598 -3.14395,5.99989 -4.10389,9.79174 -0.912,3.79194 -1.36799,7.94382 -1.36797,12.45566"
           id="path3907"
           style="font-size:147.45204163px;font-variant:normal;font-weight:600;font-stretch:normal;fill:#252525;fill-opacity:1;font-family:Sinhala MN;-inkscape-font-specification:Sinhala MN" />
        <path
           d="m 225.09384,332.80662 0,38.08698 c -2e-5,1.05598 0.19198,2.06395 0.57599,3.02391 0.43196,0.91199 1.00795,1.70397 1.72795,2.37594 0.71996,0.67199 1.55993,1.22398 2.51993,1.65596 0.95995,0.38399 1.99192,0.57599 3.09592,0.57598 1.24794,10e-6 2.7119,-0.62397 4.39188,-1.87195 1.67992,-1.29595 3.14388,-2.90391 4.39189,-4.82387 l 0,-39.02295 16.41556,0 0,54.07055 -16.41556,0 0,-5.03987 c -2.15998,1.82396 -4.46392,3.28792 -6.91182,4.39188 -2.44796,1.10397 -4.8239,1.65596 -7.12781,1.65596 -2.68795,0 -5.18388,-0.43199 -7.4878,-1.29597 -2.30395,-0.91197 -4.31989,-2.13594 -6.04783,-3.6719 -1.72797,-1.53595 -3.09593,-3.3359 -4.10389,-5.39985 -0.95998,-2.06394 -1.43997,-4.27187 -1.43996,-6.62382 l 0,-38.08698 16.41555,0"
           id="path3909"
           style="font-size:147.45204163px;font-variant:normal;font-weight:600;font-stretch:normal;fill:#252525;fill-opacity:1;font-family:Sinhala MN;-inkscape-font-specification:Sinhala MN" />
        <path
           d="m 293.78907,358.94192 c -1.58399,0.67201 -3.19194,1.46398 -4.82387,2.37593 -1.58398,0.864 -3.04794,1.82398 -4.39188,2.87993 -1.29599,1.05599 -2.35196,2.18396 -3.16791,3.3839 -0.816,1.19999 -1.22399,2.44796 -1.22397,3.7439 -2e-5,1.00799 0.11998,1.99196 0.35999,2.95192 0.28797,0.91199 0.67196,1.70397 1.15197,2.37594 0.47996,0.67199 1.00795,1.22398 1.58396,1.65596 0.57596,0.38399 1.19994,0.57599 1.87195,0.57598 1.34393,10e-6 2.6879,-0.40798 4.03189,-1.22397 1.39193,-0.81596 2.92789,-1.84794 4.60787,-3.09591 l 0,-15.62358 m 16.48756,27.93525 -16.48756,0 0,-4.31989 c -0.912,0.76799 -1.79998,1.48797 -2.66392,2.15994 -0.86401,0.62399 -1.84798,1.17597 -2.95193,1.65596 -1.05599,0.47999 -2.25596,0.83998 -3.5999,1.07997 -1.34399,0.28799 -2.92794,0.43199 -4.75187,0.43199 -2.49595,0 -4.75189,-0.35999 -6.76782,-1.07997 -1.96796,-0.71998 -3.64791,-1.70395 -5.03986,-2.95192 -1.39197,-1.24796 -2.47194,-2.71192 -3.23992,-4.39188 -0.71998,-1.72795 -1.07997,-3.5999 -1.07997,-5.61585 0,-2.06393 0.38399,-3.93588 1.15197,-5.61585 0.81597,-1.67994 1.89594,-3.1919 3.23991,-4.53588 1.39196,-1.34394 2.99991,-2.54391 4.82387,-3.5999 1.82394,-1.05595 3.76789,-2.01592 5.83185,-2.87993 2.11192,-0.91194 4.29586,-1.72792 6.55182,-2.44793 2.25591,-0.76795 4.48785,-1.48793 6.69582,-2.15994 l 1.79995,-0.43199 0,-5.32786 c -3e-5,-3.45586 -0.67201,-5.90379 -2.01594,-7.3438 -1.296,-1.43991 -3.04795,-2.15989 -5.25586,-2.15994 -2.59195,5e-5 -4.3919,0.62403 -5.39986,1.87195 -1.00799,1.24801 -1.51197,2.75997 -1.51196,4.53587 -1e-5,1.00802 -0.12001,1.99199 -0.35999,2.95193 -0.19201,0.96001 -0.552,1.79999 -1.07997,2.51993 -0.528,0.72002 -1.29598,1.296 -2.30394,1.72795 -0.95998,0.43203 -2.18395,0.64802 -3.6719,0.64798 -2.30394,4e-5 -4.17589,-0.64794 -5.61585,-1.94394 -1.43996,-1.34393 -2.15994,-3.02388 -2.15994,-5.03987 0,-1.8719 0.62398,-3.59986 1.87195,-5.18386 1.29596,-1.63191 3.02391,-3.02387 5.18386,-4.17589 2.15993,-1.15191 4.65586,-2.06389 7.4878,-2.73592 2.8319,-0.67193 5.83182,-1.00792 8.99976,-1.00798 3.88786,6e-5 7.22377,0.36005 10.00773,1.07997 2.83189,0.67204 5.15982,1.65601 6.98381,2.95192 1.82391,1.29602 3.16787,2.85598 4.0319,4.67988 0.86392,1.824 1.29591,3.86394 1.29596,6.11983 l 0,40.53492"
           id="path3911"
           style="font-size:147.45204163px;font-variant:normal;font-weight:600;font-stretch:normal;fill:#252525;fill-opacity:1;font-family:Sinhala MN;-inkscape-font-specification:Sinhala MN" />
        <path
           d="m 350.03771,349.87016 c -4e-5,-2.78389 -0.55203,-4.89583 -1.65596,-6.33583 -1.10401,-1.48791 -2.37597,-2.23189 -3.8159,-2.23194 -0.72001,5e-5 -1.53599,0.14404 -2.44793,0.43199 -0.91201,0.28804 -1.87198,0.69602 -2.87992,1.22397 -1.008,0.48003 -2.03997,1.10401 -3.09592,1.87195 -1.056,0.72002 -2.06397,1.53599 -3.02392,2.44793 l 0,39.59894 -16.48756,0 0,-54.07055 16.48756,0 0,4.24788 c 2.54391,-1.8239 5.25583,-3.16786 8.13578,-4.03189 2.87989,-0.86392 5.75981,-1.29591 8.63977,-1.29596 2.2079,5e-5 4.31984,0.43204 6.33583,1.29596 2.0159,0.86403 3.76785,2.04 5.25586,3.52791 1.48791,1.44001 2.66387,3.16796 3.52791,5.18386 0.91192,1.96799 1.3679,4.10393 1.36796,6.40783 l 0,38.73496 -16.34356,0 0,-37.00701"
           id="path3913"
           style="font-size:147.45204163px;font-variant:normal;font-weight:600;font-stretch:normal;fill:#252525;fill-opacity:1;font-family:Sinhala MN;-inkscape-font-specification:Sinhala MN" />
        <path
           d="m 371.35821,339.43044 0,-5.47185 c 1.96794,5e-5 3.81589,-0.47994 5.54385,-1.43996 1.72795,-0.95992 3.2879,-2.27989 4.67988,-3.9599 1.39194,-1.67989 2.59191,-3.62384 3.5999,-5.83184 1.00795,-2.20788 1.75193,-4.58381 2.23194,-7.12781 l 9.07176,0 0,17.20754 13.31964,0 0,6.62382 -13.31964,0 0,34.91906 c -3e-5,1.10398 0.26396,2.06396 0.79197,2.87993 0.57596,0.76798 1.34394,1.15197 2.30394,1.15196 0.57596,10e-6 1.19994,-0.19198 1.87195,-0.57598 0.67195,-0.38398 1.31993,-0.81597 1.94395,-1.29596 0.62395,-0.52798 1.17593,-1.05597 1.65596,-1.58396 0.47995,-0.52798 0.81594,-0.93596 1.00797,-1.22397 l 5.61585,4.46388 c -0.91202,1.39197 -1.91999,2.71193 -3.02392,3.95989 -1.05601,1.19998 -2.30398,2.25595 -3.7439,3.16792 -1.392,0.86398 -3.02395,1.53596 -4.89587,2.01595 -1.82398,0.52798 -3.93592,0.79197 -6.33583,0.79197 -2.25596,0 -4.24791,-0.33599 -5.97584,-1.00797 -1.67997,-0.62398 -3.09593,-1.51196 -4.24788,-2.66393 -1.10399,-1.19996 -1.94396,-2.61592 -2.51994,-4.24788 -0.57599,-1.63195 -0.86398,-3.4319 -0.86397,-5.39986 l 0,-35.35105 -8.71177,0"
           id="path3915"
           style="font-size:147.45204163px;font-variant:normal;font-weight:600;font-stretch:normal;fill:#252525;fill-opacity:1;font-family:Sinhala MN;-inkscape-font-specification:Sinhala MN" />
        <path
           d="m 433.1011,332.80662 0,38.08698 c -2e-5,1.05598 0.19198,2.06395 0.57599,3.02391 0.43196,0.91199 1.00795,1.70397 1.72795,2.37594 0.71996,0.67199 1.55993,1.22398 2.51993,1.65596 0.95995,0.38399 1.99192,0.57599 3.09592,0.57598 1.24794,10e-6 2.7119,-0.62397 4.39188,-1.87195 1.67992,-1.29595 3.14388,-2.90391 4.39189,-4.82387 l 0,-39.02295 16.41556,0 0,54.07055 -16.41556,0 0,-5.03987 c -2.15998,1.82396 -4.46392,3.28792 -6.91182,4.39188 -2.44796,1.10397 -4.8239,1.65596 -7.12781,1.65596 -2.68795,0 -5.18388,-0.43199 -7.4878,-1.29597 -2.30395,-0.91197 -4.31989,-2.13594 -6.04783,-3.6719 -1.72797,-1.53595 -3.09593,-3.3359 -4.10389,-5.39985 -0.95998,-2.06394 -1.43997,-4.27187 -1.43997,-6.62382 l 0,-38.08698 16.41556,0"
           id="path3917"
           style="font-size:147.45204163px;font-variant:normal;font-weight:600;font-stretch:normal;fill:#252525;fill-opacity:1;font-family:Sinhala MN;-inkscape-font-specification:Sinhala MN" />
        <path
           d="m 539.70785,350.15815 c -7e-5,-1.19993 -0.14407,-2.3279 -0.43199,-3.38391 -0.28806,-1.10393 -0.69605,-2.0399 -1.22396,-2.80792 -0.52806,-0.81594 -1.15204,-1.46392 -1.87195,-1.94395 -0.72005,-0.47994 -1.48803,-0.71993 -2.30394,-0.71998 -0.96004,5e-5 -1.94401,0.16804 -2.95192,0.50399 -1.00804,0.28803 -2.01601,0.69602 -3.02392,1.22396 -1.00803,0.52803 -1.96801,1.15202 -2.87992,1.87195 -0.86404,0.72003 -1.63202,1.464 -2.30394,2.23194 l 0,39.74294 -16.27156,0 0,-36.71902 c -4e-5,-1.19993 -0.16804,-2.3279 -0.50399,-3.38391 -0.33603,-1.10393 -0.76802,-2.0399 -1.29597,-2.80792 -0.52802,-0.81594 -1.152,-1.46392 -1.87195,-1.94395 -0.67201,-0.47994 -1.39199,-0.71993 -2.15994,-0.71998 -0.86401,5e-5 -1.79998,0.16804 -2.80792,0.50399 -1.00801,0.28803 -2.01598,0.69602 -3.02392,1.22396 -1.008,0.52803 -1.99197,1.15202 -2.95192,1.87195 -0.912,0.72003 -1.72798,1.464 -2.44794,2.23194 l 0,39.74294 -16.41556,0 0,-54.07055 16.41556,0 0,4.60787 c 2.59191,-1.7279 5.25583,-3.09586 7.99179,-4.10389 2.73589,-1.05591 5.39982,-1.5839 7.99178,-1.58395 1.39193,5e-5 2.80789,0.16805 4.24789,0.50398 1.43992,0.28805 2.80788,0.72004 4.10389,1.29597 1.34392,0.57604 2.56788,1.29602 3.6719,2.15994 1.15192,0.81603 2.13589,1.752 2.95192,2.80793 1.19992,-1.00793 2.54388,-1.9199 4.03189,-2.73593 1.5359,-0.86393 3.11986,-1.58391 4.75188,-2.15994 1.63189,-0.57593 3.28784,-1.03192 4.96786,-1.36797 1.72789,-0.33593 3.43184,-0.50393 5.11187,-0.50398 2.30386,5e-5 4.4878,0.45604 6.55182,1.36796 2.06386,0.86403 3.86381,2.064 5.39986,3.5999 1.58387,1.53601 2.83183,3.35996 3.74389,5.47186 0.91189,2.06398 1.36788,4.29592 1.36797,6.69582 l 0,38.01498 -16.55956,0 0,-36.71902"
           id="path3919"
           style="font-size:147.45204163px;font-variant:normal;font-weight:600;font-stretch:normal;fill:#252525;fill-opacity:1;font-family:Sinhala MN;-inkscape-font-specification:Sinhala MN" />
        <g
           transform="matrix(1.1341234,0,0,1.2926962,340.51503,-15.901447)"
           id="layer1-6">
          <g
             transform="matrix(0.49074074,0,0,0.49074074,152.8106,268.97316)"
             id="g3379">
            <g
               transform="matrix(2.2087612,0,0,2.0026491,-195.0805,-1039.2338)"
               id="g3734">
              <path
                 d="m 153.03024,538.40082 -11.23844,38.04097 -14.00517,0 11.23845,-37.60179 -11.23845,-37.60178 14.00517,0 z"
                 id="anglr-1"
                 style="font-size:37.23672485px;font-style:normal;font-weight:normal;line-height:125%;letter-spacing:0px;word-spacing:0px;opacity:0.61799999;fill:#252525;fill-opacity:1;stroke:none;font-family:Sans" />
            </g>
            <path
               d="m -722.09701,38.934165 c 0,24.057619 -0.011,48.118638 0.021,72.176245 0,1.74547 -0.164,2.41001 -1.332,2.39301 -7.838,-0.1037 -15.676,-0.0799 -23.516,-0.0169 -0.881,0.006 -1.121,-0.32122 -1.119,-1.87634 0.026,-44.44922 0.025,-88.900154 0,-133.345962 0,-1.318876 -0.044,-12.910052 -0.014,-14.290268 4.3227,-0.04232 18.342,-0.01699 25.9863,0.04707 -0.01,1.711346 -0.014,0.872635 -0.015,2.32578 -0.017,24.1952712 -0.011,48.38884 -0.011,72.587517 z"
               id="path3369-3"
               style="font-size:37.23672485px;font-style:normal;font-weight:normal;line-height:125%;letter-spacing:0px;word-spacing:0px;opacity:0.61799999;fill:#252525;fill-opacity:1;stroke:none;font-family:Sans" />
          </g>
        </g>
      </g>
    </g>
  </g>
</svg>
