<?xml version="1.0" encoding="UTF-8" standalone="no"?>
<!-- Created with Inkscape (http://www.inkscape.org/) -->

<svg
   xmlns:dc="http://purl.org/dc/elements/1.1/"
   xmlns:cc="http://creativecommons.org/ns#"
   xmlns:rdf="http://www.w3.org/1999/02/22-rdf-syntax-ns#"
   xmlns:svg="http://www.w3.org/2000/svg"
   xmlns="http://www.w3.org/2000/svg"
   xmlns:sodipodi="http://sodipodi.sourceforge.net/DTD/sodipodi-0.dtd"
   xmlns:inkscape="http://www.inkscape.org/namespaces/inkscape"
   width="742.44714"
   height="134.44244"
   id="svg2"
   version="1.1"
   inkscape:version="0.48.5 r10040"
   sodipodi:docname="JuliaQuantum.svg"
   inkscape:export-filename="C:\Users\qxd\Desktop\QAIlogo\JuliaQuantum.png"
   inkscape:export-xdpi="90"
   inkscape:export-ydpi="90">
  <defs
     id="defs4" />
  <sodipodi:namedview
     id="base"
     pagecolor="#ffffff"
     bordercolor="#666666"
     borderopacity="1.0"
     inkscape:pageopacity="0.0"
     inkscape:pageshadow="2"
     inkscape:zoom="0.98994949"
     inkscape:cx="404.68626"
     inkscape:cy="92.212443"
     inkscape:document-units="px"
     inkscape:current-layer="layer1-7"
     showgrid="false"
     inkscape:window-width="1060"
     inkscape:window-height="651"
     inkscape:window-x="60"
     inkscape:window-y="60"
     inkscape:window-maximized="0"
     showborder="true"
     fit-margin-top="0"
     fit-margin-left="0"
     fit-margin-right="0"
     fit-margin-bottom="0">
    <inkscape:grid
       type="xygrid"
       id="grid3257"
       empspacing="5"
       visible="true"
       enabled="true"
       snapvisiblegridlinesonly="true"
       originx="-1.1113418px"
       originy="-726.0987px" />
  </sodipodi:namedview>
  <metadata
     id="metadata7">
    <rdf:RDF>
      <cc:Work
         rdf:about="">
        <dc:format>image/svg+xml</dc:format>
        <dc:type
           rdf:resource="http://purl.org/dc/dcmitype/StillImage" />
        <dc:title></dc:title>
      </cc:Work>
    </rdf:RDF>
  </metadata>
  <g
     inkscape:label="Layer 1"
     inkscape:groupmode="layer"
     id="layer1"
     transform="translate(-1.1113418,-191.82103)">
    <g
       id="g3059"
       transform="matrix(0.65979775,0,0,0.65234989,-2.187719,187.9947)">
      <circle
         id="circle3035"
         r="16.5"
         cy="58.665001"
         cx="50.5"
         sodipodi:cx="50.5"
         sodipodi:cy="58.665001"
         sodipodi:rx="16.5"
         sodipodi:ry="16.5"
         style="fill:#6b85dd;stroke:#4266d5;stroke-width:3"
         d="m 67,58.665001 c 0,9.112698 -7.387302,16.5 -16.5,16.5 -9.112698,0 -16.5,-7.387302 -16.5,-16.5 0,-9.112698 7.387302,-16.5 16.5,-16.5 9.112698,0 16.5,7.387302 16.5,16.5 z" />
      <circle
         id="circle3037"
         r="16.5"
         cy="60.249001"
         cx="212.459"
         sodipodi:cx="212.459"
         sodipodi:cy="60.249001"
         sodipodi:rx="16.5"
         sodipodi:ry="16.5"
         style="fill:#d66661;stroke:#c93d39;stroke-width:3"
         d="m 228.959,60.249001 c 0,9.112698 -7.3873,16.5 -16.5,16.5 -9.1127,0 -16.5,-7.387302 -16.5,-16.5 0,-9.112699 7.3873,-16.5 16.5,-16.5 9.1127,0 16.5,7.387301 16.5,16.5 z" />
      <circle
         id="circle3039"
         r="16.5"
         cy="23.874001"
         cx="233.834"
         sodipodi:cx="233.834"
         sodipodi:cy="23.874001"
         sodipodi:rx="16.5"
         sodipodi:ry="16.5"
         style="fill:#6bab5b;stroke:#3b972e;stroke-width:3"
         d="m 250.334,23.874001 c 0,9.112698 -7.3873,16.5 -16.5,16.5 -9.1127,0 -16.5,-7.387302 -16.5,-16.5 0,-9.112699 7.3873,-16.5000005 16.5,-16.5000005 9.1127,0 16.5,7.3873015 16.5,16.5000005 z" />
      <circle
         id="circle3041"
         r="16.5"
         cy="59.999001"
         cx="255.459"
         sodipodi:cx="255.459"
         sodipodi:cy="59.999001"
         sodipodi:rx="16.5"
         sodipodi:ry="16.5"
         style="fill:#aa7dc0;stroke:#945bb0;stroke-width:3"
         d="m 271.959,59.999001 c 0,9.112698 -7.3873,16.5 -16.5,16.5 -9.1127,0 -16.5,-7.387302 -16.5,-16.5 0,-9.112699 7.3873,-16.5 16.5,-16.5 9.1127,0 16.5,7.387301 16.5,16.5 z" />
      <path
         id="path3043"
         d="m 37.216,138.427 c 0,-15.839 0.006,-31.679 -0.018,-47.517 -10e-4,-0.827 0.169,-1.234 1.043,-1.47 7.876,-2.127 15.739,-4.308 23.606,-6.47 1.33,-0.366 1.333,-0.36 1.333,1.019 0,25.758 0.015,51.517 -0.012,77.274 -0.006,5.514 0.245,11.032 -0.272,16.543 -0.628,6.69 -2.15,13.092 -6.438,18.506 -3.781,4.771 -8.898,7.25 -14.767,8.338 -6.599,1.222 -13.251,1.552 -19.934,0.938 -4.616,-0.423 -9.045,-1.486 -12.844,-4.363 -2.863,-2.168 -4.454,-4.935 -3.745,-8.603 0.736,-3.806 3.348,-5.978 6.861,-7.127 2.262,-0.74 4.628,-0.872 6.994,-0.53 1.823,0.264 3.42,1.023 4.779,2.288 1.38,1.284 2.641,2.674 3.778,4.177 0.872,1.15 1.793,2.256 2.991,3.086 2.055,1.426 4,0.965 5.213,-1.216 0.819,-1.473 0.997,-3.106 1.173,-4.731 0.255,-2.348 0.255,-4.707 0.256,-7.062 0.005,-14.362 0.003,-28.721 0.003,-43.08 z"
         inkscape:connector-curvature="0"
         style="fill:#252525" />
      <path
         id="path3045"
         d="m 125.536,162.479 c -2.908,2.385 -5.783,4.312 -8.88,5.904 -10.348,5.323 -20.514,4.521 -30.324,-1.253 -6.71,-3.95 -11.012,-9.849 -12.52,-17.606 -0.236,-1.213 -0.363,-2.438 -0.363,-3.688 0.01,-19.797 0.017,-39.593 -0.02,-59.39 -0.002,-1.102 0.285,-1.357 1.363,-1.351 7.798,0.049 15.597,0.044 23.396,0.003 0.95,-0.005 1.177,0.25 1.175,1.183 -0.027,19.356 -0.025,38.713 -0.018,58.07 0.002,6.34 3.599,10.934 9.672,12.42 2.13,0.521 4.19,0.396 6.173,-0.6 4.26,-2.139 7.457,-5.427 10.116,-9.307 0.333,-0.487 0.224,-1 0.224,-1.51 0.007,-19.635 0.016,-39.271 -0.02,-58.904 -0.002,-1.083 0.255,-1.369 1.353,-1.361 7.838,0.052 15.677,0.045 23.515,0.004 0.916,-0.005 1.103,0.244 1.102,1.124 -0.025,27.677 -0.026,55.353 0.002,83.024 0.001,0.938 -0.278,1.099 -1.139,1.095 -7.918,-0.028 -15.837,-0.028 -23.756,-0.001 -0.815,0.003 -1.1,-0.166 -1.073,-1.037 0.067,-2.181 0.022,-4.37 0.022,-6.819 z"
         inkscape:connector-curvature="0"
         style="fill:#252525" />
      <path
         id="path3047"
         d="m 187.423,107.08 c 0,20.637 -0.011,41.273 0.026,61.91 0.003,1.119 -0.309,1.361 -1.381,1.355 -7.799,-0.052 -15.598,-0.047 -23.396,-0.008 -0.898,0.008 -1.117,-0.222 -1.115,-1.115 0.021,-39.074 0.021,-78.147 0,-117.226 0,-0.811 0.189,-1.169 1.006,-1.392 7.871,-2.149 15.73,-4.327 23.584,-6.545 1.045,-0.295 1.308,-0.17 1.306,0.985 -0.041,20.683 -0.03,41.359 -0.03,62.036 z"
         inkscape:connector-curvature="0"
         style="fill:#252525" />
      <path
         id="path3049"
         d="m 223.46,126.477 c 0,14.155 -0.011,28.312 0.021,42.467 0.002,1.027 -0.164,1.418 -1.332,1.408 -7.838,-0.061 -15.676,-0.047 -23.516,-0.01 -0.881,0.004 -1.121,-0.189 -1.119,-1.104 0.026,-26.153 0.025,-52.307 0,-78.458 0,-0.776 0.203,-1.101 0.941,-1.302 7.984,-2.172 15.972,-4.35 23.938,-6.596 1.049,-0.296 1.08,0.031 1.078,0.886 -0.017,14.236 -0.011,28.471 -0.011,42.709 z"
         inkscape:connector-curvature="0"
         style="fill:#252525" />
      <path
         id="path3051"
         d="m 277.695,163.6 c -0.786,0.646 -1.404,1.125 -2,1.635 -4.375,3.746 -9.42,5.898 -15.16,6.42 -5.792,0.527 -11.479,0.244 -16.934,-2.047 -12.08,-5.071 -15.554,-17.188 -11.938,-27.448 1.799,-5.111 5.472,-8.868 9.831,-11.94 5.681,-4.003 12.009,-6.732 18.504,-9.074 5.576,-2.014 11.186,-3.939 16.955,-5.347 0.445,-0.104 0.773,-0.243 0.757,-0.854 -0.136,-4.389 0.261,-8.79 -0.479,-13.165 -1.225,-7.209 -6.617,-10.013 -12.895,-9.348 -0.516,0.055 -1.029,0.129 -1.536,0.241 -4.877,1.081 -7.312,4.413 -7.374,10.127 -0.02,1.729 -0.229,3.418 -0.693,5.084 -0.906,3.229 -2.969,5.354 -6.168,6.266 -3.422,0.979 -6.893,0.998 -10.23,-0.305 -6.529,-2.543 -8.877,-10.164 -5.12,-16.512 2.249,-3.799 5.606,-6.4 9.461,-8.405 6.238,-3.246 12.914,-4.974 19.896,-5.537 7.565,-0.61 15.096,-0.366 22.49,1.507 4.285,1.085 8.312,2.776 11.744,5.657 4.473,3.749 6.776,8.647 6.812,14.374 0.139,21.477 0.096,42.951 0.143,64.428 0.002,0.799 -0.248,0.983 -1.021,0.98 -8.035,-0.025 -16.074,-0.023 -24.113,-10e-4 -0.716,0.002 -0.973,-0.146 -0.941,-0.915 0.05,-1.859 0.009,-3.723 0.009,-5.821 z m 0,-37.207 c -4.793,2.104 -9.25,4.373 -13.287,7.408 -2.151,1.618 -4.033,3.483 -5.732,5.581 -4.229,5.226 -1.988,13.343 1.693,16.599 1.592,1.406 3.359,1.906 5.419,1.521 1.621,-0.307 3.149,-0.857 4.549,-1.734 1.521,-0.951 2.949,-2.072 4.539,-2.887 2.31,-1.18 2.97,-2.861 2.894,-5.445 -0.209,-6.952 -0.075,-13.909 -0.075,-21.043 z"
         inkscape:connector-curvature="0"
         style="fill:#252525" />
    </g>
    <g
       id="layer1-7"
       inkscape:label="Layer 1"
       transform="matrix(0.97524786,0,0,0.97793146,111.78745,-67.075873)">
      <text
         inkscape:export-ydpi="90"
         inkscape:export-xdpi="90"
         inkscape:export-filename="C:\Users\qxd\Desktop\QAIlogo\Q.png"
         sodipodi:linespacing="125%"
         id="text3022"
         y="386.87717"
         x="85.15258"
         style="font-size:37.23672485px;font-style:normal;font-weight:normal;line-height:125%;letter-spacing:0px;word-spacing:0px;fill:#000000;fill-opacity:1;stroke:none;font-family:Sans"
         xml:space="preserve"
         transform="scale(1.0381445,0.96325708)"><tspan
           style="font-size:134.05220032px;font-style:normal;font-variant:normal;font-weight:600;font-stretch:normal;fill:#0000ff;font-family:Adobe Caslon Pro;-inkscape-font-specification:Adobe Caslon Pro Semi-Bold"
           y="386.87717"
           x="85.15258"
           id="tspan3024"
           sodipodi:role="line">Quantum</tspan></text>
    </g>
  </g>
</svg>
