<?xml version="1.0" encoding="UTF-8" standalone="no"?>
<!-- Created with Inkscape (http://www.inkscape.org/) -->

<svg
   xmlns:dc="http://purl.org/dc/elements/1.1/"
   xmlns:cc="http://creativecommons.org/ns#"
   xmlns:rdf="http://www.w3.org/1999/02/22-rdf-syntax-ns#"
   xmlns:svg="http://www.w3.org/2000/svg"
   xmlns="http://www.w3.org/2000/svg"
   xmlns:sodipodi="http://sodipodi.sourceforge.net/DTD/sodipodi-0.dtd"
   xmlns:inkscape="http://www.inkscape.org/namespaces/inkscape"
   width="249.78899"
   height="142.00002"
   id="svg3319"
   version="1.1"
   inkscape:version="0.48.5 r10040"
   sodipodi:docname="JuliaQuantum_logo_142.svg"
   inkscape:export-filename="C:\Users\qxd\Desktop\QAIlogo\JuliaQuantum_logo_250x142.png"
   inkscape:export-xdpi="90"
   inkscape:export-ydpi="90">
  <defs
     id="defs3321" />
  <sodipodi:namedview
     id="base"
     pagecolor="#ffffff"
     bordercolor="#666666"
     borderopacity="1.0"
     inkscape:pageopacity="0.0"
     inkscape:pageshadow="2"
     inkscape:zoom="1.4"
     inkscape:cx="89.896237"
     inkscape:cy="101.19275"
     inkscape:document-units="px"
     inkscape:current-layer="g3379"
     showgrid="false"
     fit-margin-top="0"
     fit-margin-left="0"
     fit-margin-right="0"
     fit-margin-bottom="0"
     showguides="false"
     showborder="true"
     inkscape:window-width="1280"
     inkscape:window-height="725"
     inkscape:window-x="-9"
     inkscape:window-y="-9"
     inkscape:window-maximized="1">
    <inkscape:grid
       type="xygrid"
       id="grid3633"
       empspacing="5"
       visible="true"
       enabled="true"
       snapvisiblegridlinesonly="true"
       originx="-147.10182px"
       originy="-709.23348px" />
  </sodipodi:namedview>
  <metadata
     id="metadata3324">
    <rdf:RDF>
      <cc:Work
         rdf:about="">
        <dc:format>image/svg+xml</dc:format>
        <dc:type
           rdf:resource="http://purl.org/dc/dcmitype/StillImage" />
        <dc:title></dc:title>
      </cc:Work>
    </rdf:RDF>
  </metadata>
  <g
     inkscape:label="Layer 1"
     inkscape:groupmode="layer"
     id="layer1"
     transform="translate(-147.10182,-201.12864)">
    <g
       id="g3379"
       transform="matrix(0.49074074,0,0,0.49074074,152.8106,268.97316)">
      <circle
         id="circle3357"
         r="16.5"
         cy="60.249001"
         cx="212.459"
         sodipodi:cx="212.459"
         sodipodi:cy="60.249001"
         sodipodi:rx="16.5"
         sodipodi:ry="16.5"
         style="fill:#d66661;stroke:#c93d39;stroke-width:3"
         d="m 228.959,60.249001 c 0,9.112698 -7.3873,16.5 -16.5,16.5 -9.1127,0 -16.5,-7.387302 -16.5,-16.5 0,-9.112699 7.3873,-16.5 16.5,-16.5 9.1127,0 16.5,7.387301 16.5,16.5 z"
         transform="matrix(3.2814787,0,0,3.2814854,-545.65715,-137.09879)"
         inkscape:export-filename="C:\Users\qxd\Desktop\QAIlogo\JuliaQuantum_logo_400.png"
         inkscape:export-xdpi="90"
         inkscape:export-ydpi="90" />
      <circle
         id="circle3359"
         r="16.5"
         cy="23.874001"
         cx="233.834"
         sodipodi:cx="233.834"
         sodipodi:cy="23.874001"
         sodipodi:rx="16.5"
         sodipodi:ry="16.5"
         style="fill:#6bab5b;stroke:#3b972e;stroke-width:3"
         d="m 250.334,23.874001 c 0,9.112698 -7.3873,16.5 -16.5,16.5 -9.1127,0 -16.5,-7.387302 -16.5,-16.5 0,-9.112699 7.3873,-16.5000005 16.5,-16.5000005 9.1127,0 16.5,7.3873015 16.5,16.5000005 z"
         transform="matrix(3.2814787,0,0,3.2814854,-545.65715,-137.09879)"
         inkscape:export-filename="C:\Users\qxd\Desktop\QAIlogo\JuliaQuantum_logo_400.png"
         inkscape:export-xdpi="90"
         inkscape:export-ydpi="90" />
      <circle
         id="circle3361"
         r="16.5"
         cy="59.999001"
         cx="255.459"
         sodipodi:cx="255.459"
         sodipodi:cy="59.999001"
         sodipodi:rx="16.5"
         sodipodi:ry="16.5"
         style="fill:#aa7dc0;stroke:#945bb0;stroke-width:3"
         d="m 271.959,59.999001 c 0,9.112698 -7.3873,16.5 -16.5,16.5 -9.1127,0 -16.5,-7.387302 -16.5,-16.5 0,-9.112699 7.3873,-16.5 16.5,-16.5 9.1127,0 16.5,7.387301 16.5,16.5 z"
         transform="matrix(3.2814787,0,0,3.2814854,-545.65715,-137.09879)"
         inkscape:export-filename="C:\Users\qxd\Desktop\QAIlogo\JuliaQuantum_logo_400.png"
         inkscape:export-xdpi="90"
         inkscape:export-ydpi="90" />
      <path
         id="path3369"
         d="m 73.588558,6.5211933 c 0,46.4494127 -0.0361,92.9054027 0.06891,139.3548267 0.0066,3.37009 -0.538162,4.65315 -4.37093,4.62034 -25.72023,-0.20018 -51.440459,-0.15424 -77.1672515,-0.0328 -2.8909825,0.0131 -3.6785425,-0.6202 -3.6719795,-3.62276 0.08532,-85.820689 0.08204,-171.644645 0,-257.45877 0,-2.54643 -0.14504,-24.92619 -0.04527,-27.59106 14.1849422,-0.0817 60.188783,-0.0325 85.273621,0.0908 -0.03282,3.3042 -0.0443,1.68486 -0.05086,4.49053 -0.05579,46.715229 -0.0361,93.42717 -0.0361,140.1489578 z"
         inkscape:connector-curvature="0"
         style="fill:#252525"
         sodipodi:nodetypes="sccccccccs"
         inkscape:export-filename="C:\Users\qxd\Desktop\QAIlogo\JuliaQuantum_logo_400.png"
         inkscape:export-xdpi="90"
         inkscape:export-ydpi="90" />
      <g
         id="g3734"
         transform="matrix(7.2480029,0,0,6.5716636,-1185.8096,-3547.3291)"
         inkscape:export-filename="C:\Users\qxd\Desktop\QAIlogo\JuliaQuantum_logo_400.png"
         inkscape:export-xdpi="90"
         inkscape:export-ydpi="90">
        <path
           id="anglr"
           d="m 232.22681,540.52876 -9.41837,22.25696 -11.73701,0 9.41837,-22 -9.41837,-22 11.73701,0 z"
           inkscape:connector-curvature="0"
           sodipodi:nodetypes="ccccccc"
           style="fill:#252525;fill-opacity:1" />
      </g>
    </g>
  </g>
</svg>
