<?xml version="1.0" encoding="UTF-8" standalone="no"?>
<!-- Created with Inkscape (http://www.inkscape.org/) -->

<svg
   xmlns:dc="http://purl.org/dc/elements/1.1/"
   xmlns:cc="http://creativecommons.org/ns#"
   xmlns:rdf="http://www.w3.org/1999/02/22-rdf-syntax-ns#"
   xmlns:svg="http://www.w3.org/2000/svg"
   xmlns="http://www.w3.org/2000/svg"
   xmlns:sodipodi="http://sodipodi.sourceforge.net/DTD/sodipodi-0.dtd"
   xmlns:inkscape="http://www.inkscape.org/namespaces/inkscape"
   width="76.120865"
   height="43.273079"
   id="svg3319"
   version="1.1"
   inkscape:version="0.48.5 r10040"
   sodipodi:docname="New document 19">
  <defs
     id="defs3321" />
  <sodipodi:namedview
     id="base"
     pagecolor="#ffffff"
     bordercolor="#666666"
     borderopacity="1.0"
     inkscape:pageopacity="0.0"
     inkscape:pageshadow="2"
     inkscape:zoom="7.9195959"
     inkscape:cx="35.656346"
     inkscape:cy="22.596324"
     inkscape:document-units="px"
     inkscape:current-layer="g3379"
     showgrid="false"
     fit-margin-top="0"
     fit-margin-left="0"
     fit-margin-right="0"
     fit-margin-bottom="0"
     showguides="false"
     showborder="true"
     inkscape:window-width="1280"
     inkscape:window-height="725"
     inkscape:window-x="-9"
     inkscape:window-y="-9"
     inkscape:window-maximized="1">
    <inkscape:grid
       type="xygrid"
       id="grid3633"
       empspacing="5"
       visible="true"
       enabled="true"
       snapvisiblegridlinesonly="true"
       originx="-232.67319px"
       originy="-740.28799px" />
  </sodipodi:namedview>
  <metadata
     id="metadata3324">
    <rdf:RDF>
      <cc:Work
         rdf:about="">
        <dc:format>image/svg+xml</dc:format>
        <dc:type
           rdf:resource="http://purl.org/dc/dcmitype/StillImage" />
        <dc:title></dc:title>
      </cc:Work>
    </rdf:RDF>
  </metadata>
  <g
     inkscape:label="Layer 1"
     inkscape:groupmode="layer"
     id="layer1"
     transform="translate(-232.67319,-268.80111)">
    <g
       id="g3379"
       transform="matrix(0.49074074,0,0,0.49074074,152.8106,268.97316)">
      <circle
         id="circle3357"
         r="16.5"
         cy="60.249001"
         cx="212.459"
         sodipodi:cx="212.459"
         sodipodi:cy="60.249001"
         sodipodi:rx="16.5"
         sodipodi:ry="16.5"
         style="fill:#d66661;stroke:#c93d39;stroke-width:3"
         d="m 228.959,60.249001 c 0,9.112698 -7.3873,16.5 -16.5,16.5 -9.1127,0 -16.5,-7.387302 -16.5,-16.5 0,-9.112699 7.3873,-16.5 16.5,-16.5 9.1127,0 16.5,7.387301 16.5,16.5 z" />
      <circle
         id="circle3359"
         r="16.5"
         cy="23.874001"
         cx="233.834"
         sodipodi:cx="233.834"
         sodipodi:cy="23.874001"
         sodipodi:rx="16.5"
         sodipodi:ry="16.5"
         style="fill:#6bab5b;stroke:#3b972e;stroke-width:3"
         d="m 250.334,23.874001 c 0,9.112698 -7.3873,16.5 -16.5,16.5 -9.1127,0 -16.5,-7.387302 -16.5,-16.5 0,-9.112699 7.3873,-16.5000005 16.5,-16.5000005 9.1127,0 16.5,7.3873015 16.5,16.5000005 z" />
      <circle
         id="circle3361"
         r="16.5"
         cy="59.999001"
         cx="255.459"
         sodipodi:cx="255.459"
         sodipodi:cy="59.999001"
         sodipodi:rx="16.5"
         sodipodi:ry="16.5"
         style="fill:#aa7dc0;stroke:#945bb0;stroke-width:3"
         d="m 271.959,59.999001 c 0,9.112698 -7.3873,16.5 -16.5,16.5 -9.1127,0 -16.5,-7.387302 -16.5,-16.5 0,-9.112699 7.3873,-16.5 16.5,-16.5 9.1127,0 16.5,7.387301 16.5,16.5 z" />
      <path
         id="path3369"
         d="m 188.70933,43.766758 c 0,14.154996 -0.011,28.311996 0.021,42.466996 0.002,1.027 -0.164,1.418 -1.332,1.408 -7.838,-0.061 -15.676,-0.047 -23.516,-0.01 -0.881,0.004 -1.121,-0.189 -1.119,-1.104 0.026,-26.153 0.025,-52.306996 0,-78.4579967 0,-0.776 -0.0442,-7.5960074 -0.0138,-8.408102 4.32273,-0.0249 18.34197,-0.00991 25.98634,0.027659 -0.01,1.0069225 -0.0135,0.5134431 -0.0155,1.3684431 -0.017,14.2360006 -0.011,28.4710006 -0.011,42.7090006 z"
         inkscape:connector-curvature="0"
         style="fill:#252525"
         sodipodi:nodetypes="sccccccccs" />
      <g
         id="g3734"
         transform="matrix(2.2087612,0,0,2.0026491,-195.0805,-1039.2338)">
        <path
           id="anglr"
           d="m 232.22681,540.52876 -9.41837,22.25696 -11.73701,0 9.41837,-22 -9.41837,-22 11.73701,0 z"
           inkscape:connector-curvature="0"
           sodipodi:nodetypes="ccccccc"
           style="fill:#252525;fill-opacity:1" />
      </g>
    </g>
  </g>
</svg>
