<?xml version="1.0" encoding="UTF-8"?>
<svg xmlns="http://www.w3.org/2000/svg" xmlns:xlink="http://www.w3.org/1999/xlink" width="600pt" height="400pt" viewBox="0 0 600 400" version="1.1">
<g id="surface477">
<path style=" stroke:none;fill-rule:nonzero;fill:rgb(79.6%,23.5%,20%);fill-opacity:1;" d="M 268.398438 270 C 268.398438 311.421875 234.820312 345 193.398438 345 C 151.976562 345 118.398438 311.421875 118.398438 270 C 118.398438 228.578125 151.976562 195 193.398438 195 C 234.820312 195 268.398438 228.578125 268.398438 270 Z M 268.398438 270 "/>
<path style=" stroke:none;fill-rule:nonzero;fill:rgb(22%,59.6%,14.9%);fill-opacity:1;" d="M 355 120 C 355 161.421875 321.421875 195 280 195 C 238.578125 195 205 161.421875 205 120 C 205 78.578125 238.578125 45 280 45 C 321.421875 45 355 78.578125 355 120 Z M 355 120 "/>
<path style=" stroke:none;fill-rule:nonzero;fill:rgb(58.4%,34.5%,69.8%);fill-opacity:1;" d="M 441.601562 270 C 441.601562 311.421875 408.023438 345 366.601562 345 C 325.179688 345 291.601562 311.421875 291.601562 270 C 291.601562 228.578125 325.179688 195 366.601562 195 C 408.023438 195 441.601562 228.578125 441.601562 270 Z M 441.601562 270 "/>
<path style=" stroke:none;fill-rule:nonzero;fill:rgb(100%,100%,100%);fill-opacity:1;" d="M 50 30 L 80 30 L 80 370 L 50 370 "/>
<path style=" stroke:none;fill-rule:nonzero;fill:rgb(100%,100%,100%);fill-opacity:1;" d="M 480 33 L 510 33 L 560 200 L 510 367 L 480 367 L 530 200 "/>
</g>
</svg>
